{
  "accessors": [
    {
      "bufferView": 1,
      "componentType": 5126,
      "count": 2538,
      "max": [
        0.9976000189781189,
        0.9976000189781189,
        0.0993800014257431
      ],
      "min": [
        -0.9976000189781189,
        -0.9976000189781189,
        -0.0993800014257431
      ],
      "type": "VEC3"
    },
    {
      "bufferView": 1,
      "byteOffset": 30456,
      "componentType": 5126,
      "count": 2538,
      "max": [
        1.0,
        1.0,
        1.0
      ],
      "min": [
        -1.0,
        -1.0,
        -1.0
      ],
      "type": "VEC3"
    },
    {
      "bufferView": 0,
      "componentType": 5125,
      "count": 13920,
      "type": "SCALAR"
    },
    {
      "bufferView": 1,
      "byteOffset": 60912,
      "componentType": 5126,
      "count": 840,
      "max": [
        0.9903900027275085,
        0.9903900027275085,
        0.0993800014257431
      ],
      "min": [
        -0.9903900027275085,
        -0.9903900027275085,
        -0.0993800014257431
      ],
      "type": "VEC3"
    },
    {
      "bufferView": 1,
      "byteOffset": 70992,
      "componentType": 5126,
      "count": 840,
      "max": [
        0.9951873421669006,
        0.9951873421669006,
        1.0
      ],
      "min": [
        -0.9951873421669006,
        -0.9951873421669006,
        -1.0
      ],
      "type": "VEC3"
    },
    {
      "bufferView": 0,
      "byteOffset": 55680,
      "componentType": 5125,
      "count": 3840,
      "type": "SCALAR"
    }
  ],
  "asset": {
    "extras": {
      "author": "lejonlin (https://sketchfab.com/lejonlin)",
      "license": "CC-BY-4.0 (http://creativecommons.org/licenses/by/4.0/)",
      "source": "https://sketchfab.com/3d-models/casino-poker-chip-b9efab875b9c4ac3a29ea5a0c7a260d1",
      "title": "Casino Poker Chip"
    },
    "generator": "Sketchfab-12.67.0",
    "version": "2.0"
  },
  "bufferViews": [
    {
      "buffer": 0,
      "byteLength": 71040,
      "name": "floatBufferViews",
      "target": 34963
    },
    {
      "buffer": 0,
      "byteLength": 81072,
      "byteOffset": 71040,
      "byteStride": 12,
      "name": "floatBufferViews",
      "target": 34962
    }
  ],
  "buffers": [
    {
      "byteLength": 152112,
      "uri": "scene.bin"
    }
  ],
  "extensionsRequired": [
    "KHR_materials_pbrSpecularGlossiness"
  ],
  "extensionsUsed": [
    "KHR_materials_pbrSpecularGlossiness"
  ],
  "materials": [
    {
      "doubleSided": true,
      "extensions": {
        "KHR_materials_pbrSpecularGlossiness": {
          "diffuseFactor": [
            0.5173235535621643,
            0.15202456712722778,
            0.03212899714708328,
            1.0
          ],
          "glossinessFactor": 0.4,
          "specularFactor": [
            0.0,
            0.0,
            0.0
          ]
        }
      },
      "name": "Chip_Color"
    },
    {
      "doubleSided": true,
      "extensions": {
        "KHR_materials_pbrSpecularGlossiness": {
          "diffuseFactor": [
            0.800000011920929,
            0.800000011920929,
            0.800000011920929,
            1.0
          ],
          "glossinessFactor": 0.4,
          "specularFactor": [
            0.0,
            0.0,
            0.0
          ]
        }
      },
      "name": "Chip_white"
    }
  ],
  "meshes": [
    {
      "name": "Chip_0",
      "primitives": [
        {
          "attributes": {
            "NORMAL": 1,
            "POSITION": 0
          },
          "indices": 2,
          "material": 0,
          "mode": 4
        }
      ]
    },
    {
      "name": "Chip_1",
      "primitives": [
        {
          "attributes": {
            "NORMAL": 4,
            "POSITION": 3
          },
          "indices": 5,
          "material": 1,
          "mode": 4
        }
      ]
    }
  ],
  "nodes": [
    {
      "children": [
        1
      ],
      "matrix": [
        1.0,
        0.0,
        0.0,
        0.0,
        0.0,
        2.220446049250313e-16,
        -1.0,
        0.0,
        0.0,
        1.0,
        2.220446049250313e-16,
        0.0,
        0.0,
        0.0,
        0.0,
        1.0
      ],
      "name": "Sketchfab_model"
    },
    {
      "children": [
        2
      ],
      "name": "Root"
    },
    {
      "children": [
        3,
        4
      ],
      "name": "Chip"
    },
    {
      "mesh": 0,
      "name": "Chip_0"
    },
    {
      "mesh": 1,
      "name": "Chip_1"
    }
  ],
  "scene": 0,
  "scenes": [
    {
      "name": "Sketchfab_Scene",
      "nodes": [
        0
      ]
    }
  ]
}
